<?xml version="1.0"?>
<svg xmlns="http://www.w3.org/2000/svg" height="512px" viewBox="0 -64 512 512" width="512px" class="hovered-paths"><g><path d="m314.753906 284.628906-58.773437-14.675781-4.355469-17.429687c15.574219-15.914063 26.328125-37.25 29.910156-59.265626 9.175782-3.261718 16.109375-11.496093 17.367188-21.632812l3.945312-31.527344c.917969-7.46875-1.363281-14.976562-6.292968-20.632812-2.433594-2.773438-5.398438-4.988282-8.683594-6.546875l1.324218-26.667969 5.183594-5.203125c9.578125-10.175781 17.535156-27.5625 1.152344-52.566406-12.375-18.902344-33.238281-28.480469-62.058594-28.480469-11.117187 0-36.609375 0-60.628906 15.828125-69.25 1.730469-78.230469 35.96875-78.230469 65.792969 0 6.761718 1.492188 20.992187 2.625 30.785156-3.691406 1.515625-7 3.859375-9.6875 6.910156-5.011719 5.675782-7.359375 13.25-6.421875 20.78125l3.949219 31.527344c1.34375 10.816406 9.171875 19.457031 19.261719 22.230469 3.5625 21.097656 13.761718 41.664062 28.375 57.238281l-4.714844 18.859375-58.773438 14.675781c-40.769531 10.175782-69.226562 46.65625-69.226562 88.703125 0 2.839844 1.128906 5.546875 3.113281 7.554688 1.984375 2.003906 4.738281 3.113281 7.554688 3.113281l362.664062-.042969c5.890625 0 10.667969-4.777343 10.667969-10.667969 0-42.003906-28.457031-78.484374-69.246094-88.660156zm0 0" fill="#455a64" data-original="#455A64" class="hovered-path active-path" data-old_color="#455a64" style="fill:#FFFFFF"/><path d="m322.515625 253.589844c22.335937 5.589844 42.582031 17.429687 58.816406 34.410156h120c0-24-16.277343-44.863281-39.570312-50.6875l-42.050781-10.519531-4.691407-18.855469 3.902344-4.226562c8-8.703126 13.675781-19.902344 15.9375-31.574219l1.003906-5.246094 4.796875-2.324219c3.136719-1.515625 5.269532-4.480468 5.695313-7.914062l2.5625-20.417969c.363281-2.878906-.511719-5.757813-2.410157-7.9375-.664062-.746094-1.410156-1.386719-2.242187-1.917969l-5.269531-3.328125 1.152344-23.808593 5.335937-5.332032c6.398437-6.828125 6.398437-15.167968-.238281-25.28125-6.675782-10.152344-18.238282-15.296875-34.410156-15.296875-6.847657 0-21.074219 0-34.6875 8.621094l-2.453126 1.554687-2.921874.085938c-19.199219.621094-31.507813 5.292969-37.652344 14.273438-1.066406 3.027343-2.453125 5.953124-3.96875 8.851562-.875 3.605469-1.28125 7.679688-1.28125 12.523438 0 3.691406.726562 10.816406 1.34375 16.554687l.746094 6.847656-5.90625 3.5c-.941407.554688-1.773438 1.238281-2.476563 2.046875-1.941406 2.199219-2.835937 5.121094-2.472656 8.023438l2.558593 20.394531c.449219 3.605469 2.75 6.484375 6.292969 7.957031l5.3125 2.175782 1.109375 5.632812c2.21875 11.15625 7.574219 21.992188 15.105469 30.484375l3.710937 4.203125-4.90625 19.710938-42.089843 10.515624c-2.414063.621094-4.714844 1.472657-7 2.390626v8.0625zm0 0" fill="#607d8b" data-original="#607D8B" class="" data-old_color="#607d8b" style="fill:#FFFFFF"/><path d="m10.667969 384c-2.816407 0-5.546875-1.128906-7.554688-3.113281-2.003906-1.984375-3.113281-4.714844-3.113281-7.554688 0-42.046875 28.457031-78.527343 69.246094-88.703125l58.773437-14.675781 4.714844-18.859375c-14.613281-15.550781-24.808594-36.140625-28.371094-57.238281-10.089843-2.75-17.921875-11.390625-19.265625-22.230469l-3.96875-31.527344c-.9375-7.53125 1.410156-15.105468 6.421875-20.78125 2.6875-3.050781 5.996094-5.394531 9.664063-6.910156-1.128906-9.792969-2.601563-24-2.601563-30.785156 0-29.824219 8.980469-64.0625 78.230469-65.792969 24.019531-15.828125 49.511719-15.828125 60.628906-15.828125 28.820313 0 49.683594 9.578125 62.058594 28.480469 16.382812 25.003906 8.425781 42.390625-1.152344 52.566406l-5.183594 5.203125-1.324218 26.667969c3.285156 1.535156 6.25 3.753906 8.683594 6.546875 4.929687 5.65625 7.230468 13.164062 6.292968 20.632812l-3.945312 31.527344c-1.28125 10.136719-8.214844 18.347656-17.367188 21.632812-3.582031 22.015626-14.335937 43.351563-29.910156 59.265626l4.355469 17.429687 58.773437 14.675781c40.789063 10.175782 69.246094 46.65625 69.246094 88.660156 0 5.890626-4.777344 10.667969-10.667969 10.667969zm11.476562-21.375 339.710938.042969c-4.222657-27.585938-24.53125-50.410157-52.265625-57.34375l-64.980469-16.234375c-3.820313-.941406-6.808594-3.949219-7.765625-7.765625l-7.402344-29.632813c-.960937-3.839844.277344-7.894531 3.21875-10.519531 16.214844-14.527344 26.902344-36.160156 28.628906-57.875.449219-5.546875 5.078126-9.8125 10.648438-9.8125 3.328125 0 5.503906-1.921875 5.824219-4.460937l3.945312-31.53125c.234375-1.960938-.660156-3.304688-1.214843-3.945313-.554688-.640625-1.792969-1.726563-3.800782-1.75-2.898437-.019531-5.671875-1.238281-7.636718-3.347656-1.984376-2.113281-3.027344-4.929688-2.898438-7.832031l1.917969-39.464844c.128906-2.644532 1.238281-5.140625 3.113281-7.019532l7.875-7.894531c4.457031-4.734375 7.976562-11.753906-1.367188-26.023437-8.191406-12.546875-23.0625-18.882813-44.222656-18.882813-15.722656 0-34.070312 1.644531-51.050781 13.78125-1.769531 1.28125-3.925781 1.964844-6.101563 1.984375-60.375.597656-60.375 24.960938-60.375 44.523438 0 7.550781 2.648438 30.058594 3.648438 38.082031.386719 3.027344-.554688 6.097656-2.582031 8.382813-2.023438 2.304687-4.949219 3.625-8.019531 3.625-3.625 0-4.886719 1.089843-5.460938 1.730468-.578125.636719-1.472656 2.023438-1.238281 4.007813l3.945312 31.53125c.320313 2.539062 2.496094 4.460937 5.058594 4.460937h2.558594c5.570312 0 10.199219 4.265625 10.644531 9.8125 1.6875 21.054688 11.90625 42.28125 27.328125 56.746094 2.816406 2.644531 4.011719 6.613281 3.050781 10.367188l-7.722656 30.933593c-.9375 3.820313-3.945312 6.804688-7.765625 7.765625l-64.980469 16.234375c-27.753906 6.957031-48.0625 29.761719-52.265625 57.324219zm0 0" data-original="#000000" class="" data-old_color="#000000" style="fill:#FFFFFF"/><path d="m464.339844 226.945312-35.839844-8.960937-1.769531-7.082031c9.34375-10.15625 15.9375-23.210938 18.558593-36.78125 6.1875-3.007813 10.730469-8.980469 11.628907-16.191406l2.558593-20.394532c.746094-5.867187-1.066406-11.816406-4.949218-16.277344-1.363282-1.515624-2.921875-2.835937-4.605469-3.925781l.660156-13.460937 2.410157-2.410156c5.824218-6.207032 13.738281-19.476563 1.152343-38.65625-6.015625-9.195313-18.410156-20.136719-43.308593-20.136719-7.402344 0-24.167969 0-40.402344 10.28125-22.847656.726562-37.953125 6.953125-46.125 18.945312-.511719.746094-.917969 1.578125-1.238282 2.429688-.894531 2.539062-2.089843 5.015625-3.367187 7.445312-.429687.8125-.75 1.644531-.941406 2.519531-1.042969 4.414063-1.554688 9.320313-1.554688 14.976563 0 3.964844.746094 11.582031 1.40625 17.726563-1.855469 1.109374-3.5625 2.496093-5.035156 4.160156-3.96875 4.480468-5.800781 10.453125-5.054687 16.40625l2.558593 20.394531c.917969 7.464844 5.738281 13.589844 12.863281 16.488281 2.582032 12.992188 8.8125 25.578125 17.578126 35.5l-2.003907 8.0625-35.859375 8.960938c-2.925781.746094-5.675781 1.75-8.40625 2.835937-5.460937 2.21875-8.105468 8.429688-5.910156 13.890625 2.21875 5.460938 8.46875 8.0625 13.886719 5.910156 1.816406-.75 3.671875-1.453124 5.613281-1.941406l42.046875-10.519531c3.820313-.9375 6.804687-3.945313 7.765625-7.765625l4.992188-20.007812c.9375-3.757813-.234376-7.722657-3.050782-10.371094-9.324218-8.746094-15.488281-21.546875-16.492187-34.261719-.445313-5.546875-6.269531-9.40625-11.839844-9.40625l-1.960937-19.882813c3.070312 0 5.972656-1.324218 8-3.605468 2.027343-2.28125 2.964843-5.332032 2.582031-8.382813-.898438-7.125-2.328125-19.992187-2.328125-24.171875 0-3.433594.234375-6.335937.726562-8.851562 1.238282-2.433594 2.367188-4.886719 3.347656-7.382813 4.652344-5.695312 15.148438-8.640625 31.277344-8.8125 2.195313-.019531 4.328125-.722656 6.101563-1.980469 11.476562-8.257812 24.53125-8.257812 30.824219-8.257812 12.523437 0 20.84375 3.433594 25.453124 10.476562 5.246094 8 2.878907 10.515626 1.386719 12.117188l-5.101562 5.097656c-1.875 1.875-2.984375 4.371094-3.113281 7.019532l-1.238282 25.535156c-.125 2.902344.683594 5.4375 2.667969 7.550781s4.523437 3.050781 7.425781 3.09375l-2.605468 20.011719c-5.566407 0-10.195313 4.285156-10.644532 9.832031-1.003906 12.910156-7.636718 26.304687-17.28125 34.945313-2.941406 2.644531-4.179687 6.675781-3.21875 10.519531l4.800782 19.15625c.9375 3.816406 3.945312 6.804687 7.761718 7.765625l42.050782 10.515625c14.996093 3.753906 26.324218 15.316406 30.121093 29.695312h-107.988281c-5.886719 0-10.667969 4.78125-10.667969 10.667969s4.78125 10.667969 10.667969 10.667969l120.019531-.023438c5.890625 0 10.667969-4.777343 10.667969-10.664062 0-28.910157-19.585938-54.019531-47.660156-61.035157zm0 0" data-original="#000000" class="" data-old_color="#000000" style="fill:#FFFFFF"/></g> </svg>
