<svg width="789" height="719" viewBox="0 0 789 719" fill="none" xmlns="http://www.w3.org/2000/svg">
<path d="M125 410L0 268L374 0L748 268L621 410H125Z" fill="#FF5454"/>
<path d="M125 410L0 268L374 0L748 268L621 410H125Z" fill="#514ABF"/>
<path d="M730 286H0V605H730V286Z" fill="#4540A2"/>
<path d="M730 286H0V605H730V286Z" fill="url(#paint0_linear)"/>
<path d="M492.621 128L560 195.311L256.468 498.537L189.09 431.226L492.621 128Z" fill="#FF5454"/>
<path d="M256.379 128.463L189 195.774L492.532 499L559.91 431.689L256.379 128.463Z" fill="#FF5454"/>
<path d="M748 719H0V268L374 494L748 268V719Z" fill="#514ABF"/>
<defs>
<linearGradient id="paint0_linear" x1="365" y1="605" x2="365" y2="286" gradientUnits="userSpaceOnUse">
<stop stop-opacity="0.12"/>
<stop offset="0.55135" stop-opacity="0.09"/>
<stop offset="1" stop-opacity="0.02"/>
</linearGradient>
</defs>
</svg>
