<svg width="964" height="819" viewBox="0 0 964 819" fill="none" xmlns="http://www.w3.org/2000/svg">
<g clip-path="url(#clip0)">
<path d="M486.783 520.109C489.378 522.201 492.124 524.092 495 525.769C484.684 531.816 472.964 535.001 461.032 535H460.158C449.766 534.88 439.541 532.357 430.267 527.626C420.994 522.896 412.921 516.083 406.669 507.713C400.417 499.342 396.153 489.637 394.205 479.344C392.256 469.051 392.676 458.445 395.431 448.341C398.186 438.237 403.204 428.906 410.097 421.064C416.991 413.222 425.576 407.08 435.194 403.109C444.811 399.138 455.204 397.445 465.572 398.16C475.94 398.874 486.008 401.978 495 407.231C485.404 412.803 477.307 420.661 471.417 430.116C465.528 439.572 462.024 450.338 461.214 461.474C460.403 472.61 462.31 483.776 466.767 493.998C471.224 504.219 478.096 513.184 486.783 520.109V520.109Z" fill="#FF5454"/>
<path d="M487 520.226V520.436C486.773 524.25 486.232 528.039 485.382 531.764C477.472 535.129 469.481 534.887 460.374 535H459.5C450.367 535.011 441.326 533.172 432.922 529.595C432.857 529.318 432.808 529.037 432.777 528.754C432.252 526.013 431.992 523.227 432 520.436C432 504.449 440.137 490.937 451.347 486.422C446.872 484.54 443.185 481.166 440.914 476.873C438.642 472.581 437.926 467.634 438.886 462.873C439.847 458.113 442.424 453.831 446.182 450.755C449.939 447.68 454.645 445.999 459.5 446C461.146 445.995 462.787 446.191 464.385 446.583C460.252 459.704 460.201 473.773 464.239 486.924C468.278 500.075 476.215 511.689 487 520.226H487Z" fill="white"/>
<path d="M844 466.5C844 480.048 839.983 493.292 832.456 504.556C824.929 515.821 814.231 524.601 801.714 529.786C789.197 534.97 775.424 536.327 762.136 533.684C748.849 531.041 736.643 524.517 727.063 514.937C717.483 505.357 710.959 493.151 708.316 479.864C705.673 466.576 707.03 452.803 712.214 440.286C717.399 427.769 726.179 417.071 737.443 409.544C748.708 402.017 761.952 398 775.5 398C784.496 397.999 793.404 399.77 801.715 403.212C810.026 406.655 817.578 411.7 823.939 418.061C830.3 424.422 835.345 431.974 838.788 440.285C842.23 448.596 844.001 457.504 844 466.5Z" fill="#54FF98"/>
<path d="M803 520.274C803.003 523.384 802.694 526.487 802.078 529.535C793.671 533.141 784.632 535 775.5 535C766.368 535 757.329 533.141 748.922 529.535C748.306 526.487 747.997 523.384 748 520.274C748 504.107 756.137 490.444 767.347 485.879C762.871 483.975 759.185 480.563 756.914 476.222C754.642 471.882 753.926 466.879 754.886 462.065C755.846 457.251 758.424 452.921 762.181 449.81C765.939 446.7 770.645 445 775.5 445C780.356 445 785.061 446.7 788.819 449.81C792.576 452.921 795.154 457.251 796.114 462.065C797.074 466.879 796.358 471.882 794.086 476.222C791.815 480.563 788.129 483.975 783.653 485.879C794.863 490.444 803 504.107 803 520.274Z" fill="white"/>
<path d="M669.066 20H530V185.194H669.066V20Z" fill="#F2F2F2"/>
<path d="M706.094 189.362H530.217V0H706.094V189.362ZM532.472 187.107H703.839V2.2549H532.472V187.107Z" fill="#3F3D56"/>
<path d="M548.877 561.891H373V372.528H548.877V561.891ZM375.255 559.636H546.622V374.783H375.255V559.636Z" fill="#3F3D56"/>
<path d="M862.877 561.891H687V372.528H862.877V561.891ZM689.255 559.636H860.622V374.783H689.255V559.636Z" fill="#3F3D56"/>
<path d="M619 188H618V268H619V188Z" fill="#3F3D56"/>
<path d="M775 374H773.629V270.263H462.371V374H461V268H775V374Z" fill="#3F3D56"/>
<path d="M646.811 75.5024H531.344V77.7573H646.811V75.5024Z" fill="#3F3D56"/>
<path d="M646.811 106.196H531.344V108.45H646.811V106.196Z" fill="#3F3D56"/>
<path d="M646.811 136.889H531.344V139.144H646.811V136.889Z" fill="#3F3D56"/>
<path d="M484.946 809.693H27.3994V811.693H484.946V809.693Z" fill="#3F3D56"/>
<path d="M774.939 536.606C761.213 536.606 747.796 532.536 736.384 524.91C724.972 517.285 716.077 506.447 710.825 493.767C705.572 481.086 704.198 467.133 706.875 453.672C709.553 440.21 716.162 427.845 725.867 418.14C735.572 408.434 747.937 401.825 761.399 399.147C774.86 396.469 788.814 397.843 801.494 403.096C814.175 408.348 825.013 417.243 832.638 428.655C840.264 440.067 844.334 453.484 844.334 467.209C844.313 485.607 836.995 503.246 823.986 516.256C810.976 529.266 793.337 536.584 774.939 536.606V536.606ZM774.939 400.068C761.659 400.068 748.678 404.006 737.637 411.383C726.595 418.761 717.99 429.247 712.908 441.515C707.826 453.784 706.496 467.284 709.087 480.308C711.678 493.332 718.072 505.296 727.462 514.685C736.852 524.075 748.815 530.47 761.84 533.061C774.864 535.651 788.364 534.322 800.632 529.24C812.901 524.158 823.387 515.552 830.764 504.511C838.142 493.469 842.079 480.488 842.079 467.209C842.059 449.408 834.979 432.343 822.392 419.756C809.805 407.169 792.739 400.089 774.939 400.068V400.068Z" fill="#3F3D56"/>
<path d="M461.397 536.606C447.671 536.606 434.254 532.536 422.842 524.91C411.43 517.285 402.535 506.447 397.283 493.767C392.03 481.086 390.656 467.133 393.333 453.672C396.011 440.21 402.62 427.845 412.325 418.14C422.03 408.434 434.395 401.825 447.857 399.147C461.318 396.469 475.272 397.843 487.952 403.096C500.633 408.348 511.471 417.243 519.096 428.655C526.722 440.067 530.792 453.484 530.792 467.209C530.771 485.607 523.453 503.246 510.444 516.256C497.434 529.266 479.795 536.584 461.397 536.606V536.606ZM461.397 400.068C448.117 400.068 435.136 404.006 424.095 411.383C413.053 418.761 404.448 429.247 399.366 441.515C394.284 453.784 392.954 467.284 395.545 480.308C398.136 493.332 404.53 505.296 413.92 514.685C423.31 524.075 435.273 530.47 448.298 533.061C461.322 535.651 474.822 534.322 487.09 529.24C499.359 524.158 509.845 515.552 517.222 504.511C524.6 493.469 528.537 480.488 528.537 467.209C528.517 449.408 521.437 432.343 508.85 419.756C496.263 407.169 479.197 400.089 461.397 400.068V400.068Z" fill="#3F3D56"/>
<path d="M288.155 404.945C288.155 404.945 312.155 454.945 296.155 456.945C280.155 458.945 276.155 411.945 276.155 411.945L288.155 404.945Z" fill="#FFB9B9"/>
<path d="M197.155 724.945L213.155 753.299L184.155 771.445L177.23 737.965L197.155 724.945Z" fill="#FFB9B9"/>
<path d="M203.988 757.238C203.988 757.238 212.773 742.935 215.95 745.329C219.128 747.723 232.234 758.097 232.234 758.097L249.306 774.448C249.306 774.448 306.983 780.546 270.333 800.755C233.684 820.964 213.431 804.208 213.431 804.208C213.431 804.208 162.1 806.877 162.928 792.556C163.756 778.235 180.31 755.577 180.31 755.577C180.31 755.577 201.175 769.566 203.988 757.238Z" fill="#2F2E41"/>
<path opacity="0.1" d="M203.988 757.238C203.988 757.238 212.773 742.935 215.95 745.329C219.128 747.723 232.234 758.097 232.234 758.097L249.306 774.448C249.306 774.448 306.983 780.546 270.333 800.755C233.684 820.964 213.431 804.208 213.431 804.208C213.431 804.208 162.1 806.877 162.928 792.556C163.756 778.235 180.31 755.577 180.31 755.577C180.31 755.577 201.175 769.566 203.988 757.238Z" fill="black"/>
<path d="M126.155 404.445L141.155 585.945C141.155 585.945 141.655 694.445 157.655 715.445C173.655 736.445 174.155 746.945 174.155 746.945L207.155 729.945C207.155 729.945 196.155 728.945 201.155 721.945C206.155 714.945 221.155 721.945 207.155 711.945C193.155 701.945 190.155 701.618 193.655 697.281C195.813 694.531 197.348 691.346 198.155 687.945L189.155 575.945L206.155 380.945L126.155 404.445Z" fill="#2F2E41"/>
<path opacity="0.1" d="M126.155 404.445L141.155 585.945C141.155 585.945 141.655 694.445 157.655 715.445C173.655 736.445 174.155 746.945 174.155 746.945L207.155 729.945C207.155 729.945 196.155 728.945 201.155 721.945C206.155 714.945 221.155 721.945 207.155 711.945C193.155 701.945 190.155 701.618 193.655 697.281C195.813 694.531 197.348 691.346 198.155 687.945L189.155 575.945L206.155 380.945L126.155 404.445Z" fill="black"/>
<path d="M167.155 724.945L153.155 761.945L113.155 746.945L138.155 720.945L167.155 724.945Z" fill="#FFB9B9"/>
<path d="M147.292 746.038C147.292 746.038 162.239 736.697 164.107 740.434C165.976 744.17 173.449 760.051 173.449 760.051L181.856 783.405C181.856 783.405 233.235 816.1 189.329 817.968C145.424 819.837 134.214 794.614 134.214 794.614C134.214 794.614 84.7042 773.129 92.1774 760.051C99.6507 746.973 125.807 733.409 125.807 733.409C125.807 733.409 138.885 756.314 147.292 746.038Z" fill="#2F2E41"/>
<path d="M253.155 404.945L261.155 571.945C261.155 571.945 222.155 682.945 188.155 700.945C188.155 700.945 188.155 722.945 180.155 726.945C177.771 728.176 175.658 729.872 173.941 731.933C172.223 733.994 170.936 736.378 170.155 738.945L126.155 727.945C126.155 727.945 137.155 716.945 133.155 711.945C129.155 706.945 146.155 695.945 146.155 695.945L190.155 588.945C190.155 588.945 197.155 585.945 199.155 575.945C201.155 565.945 205.155 565.945 195.155 563.945C185.155 561.945 185.155 551.945 185.155 551.945L152.155 399.945L253.155 404.945Z" fill="#2F2E41"/>
<path d="M217.155 142.945C239.247 142.945 257.155 125.036 257.155 102.945C257.155 80.8537 239.247 62.9451 217.155 62.9451C195.064 62.9451 177.155 80.8537 177.155 102.945C177.155 125.036 195.064 142.945 217.155 142.945Z" fill="#FFB9B9"/>
<path d="M181.655 105.445C181.655 105.445 178.655 156.445 174.655 161.445C170.655 166.445 216.655 165.445 216.655 165.445C216.655 165.445 213.655 122.445 216.655 118.445C219.655 114.445 181.655 105.445 181.655 105.445Z" fill="#FFB9B9"/>
<path d="M168.155 145.945C168.155 145.945 206.155 141.945 220.155 153.945C224.627 157.763 229.418 161.191 234.476 164.191C238.7 166.724 242.22 170.28 244.71 174.529C247.201 178.779 248.582 183.587 248.728 188.511L256.155 415.945C256.155 415.945 143.155 405.945 122.155 415.945C122.155 415.945 121.155 392.945 119.155 389.945C117.697 387.758 115.176 300.539 113.916 253.428C113.206 226.842 122.343 200.763 140.172 181.028C146.233 174.319 153.005 168.695 160.155 165.945C160.155 165.945 158.155 146.945 168.155 145.945Z" fill="#575A89"/>
<path d="M229.155 165.945C234.785 167.426 239.851 170.538 243.717 174.889C247.584 179.24 250.079 184.637 250.889 190.401L265.155 291.945L285.155 372.945C285.155 372.945 295.155 381.945 291.155 386.945C287.155 391.945 296.155 412.945 296.155 412.945L271.155 420.945C271.155 420.945 268.155 399.945 263.155 398.945C258.761 398.066 209.572 266.663 197.715 234.83C196.08 230.441 195.155 227.945 195.155 227.945C195.155 227.945 197.155 160.945 229.155 165.945Z" fill="#575A89"/>
<path opacity="0.1" d="M195.655 227.445L256.155 391.114C256.155 391.114 197.655 280.445 195.655 227.445Z" fill="black"/>
<path d="M196.259 114.732C199.641 114.53 202.944 115.673 206.304 116.119C218.323 117.715 230.826 108.993 233.48 97.1631C233.692 95.5877 234.162 94.0578 234.869 92.6343C236.719 89.6143 240.932 89.0385 244.405 89.7329C247.877 90.4274 251.169 92.0527 254.706 92.2383C260.167 92.5248 265.409 89.163 268.319 84.5336C271.229 79.9041 272.053 74.2077 271.661 68.7537L269.043 71.5011C267.979 69.2507 267.568 66.747 267.857 64.2747C266.47 63.9052 265.011 63.8981 263.621 64.254C262.23 64.6098 260.954 65.3168 259.914 66.3071C257.606 66.5528 259.348 62.0257 257.633 60.4611C256.915 59.806 255.814 59.9296 254.842 59.939C249.932 59.9863 245.959 56.2304 242.09 53.2068C235.385 47.9797 227.545 44.4033 219.202 42.7668C213.657 41.6853 207.761 41.5115 202.502 43.5763C198.183 45.2721 194.569 48.3605 191.224 51.5763C182.991 59.4929 175.701 68.7945 172.276 79.6905C169.491 88.6152 169.412 98.1646 172.049 107.134C173.429 111.792 177.589 127.745 183.678 128.116C191.329 128.583 186.735 115.3 196.259 114.732Z" fill="#2F2E41"/>
<path d="M71.5624 810.371L70.4891 809.968C70.2533 809.879 46.7807 800.886 35.785 780.495C24.789 760.102 30.1732 735.549 30.2289 735.304L30.4823 734.186L31.5551 734.588C31.7909 734.677 55.263 743.67 66.2591 764.062C77.2552 784.455 71.871 809.007 71.8153 809.252L71.5624 810.371ZM37.5458 779.545C46.8422 796.787 65.391 805.625 70.0907 807.642C70.9843 802.605 73.7865 782.236 64.4984 765.011C55.2113 747.789 36.6552 738.937 31.9535 736.915C31.0594 741.955 28.2582 762.322 37.5458 779.545H37.5458Z" fill="#3F3D56"/>
<path d="M44.1884 773.342C63.9489 785.23 71.5594 808.844 71.5594 808.844C71.5594 808.844 47.1316 813.183 27.371 801.295C7.61042 789.406 0 765.792 0 765.792C0 765.792 24.4278 761.453 44.1884 773.342Z" fill="#FF5454"/>
<path d="M510.184 446L518.669 454.485L480.485 492.669L472 484.184L510.184 446Z" fill="#FF5454"/>
<path d="M472 454.485L480.485 446L518.669 484.184L510.184 492.669L472 454.485Z" fill="#FF5454"/>
</g>
<defs>
<clipPath id="clip0">
<rect width="963.155" height="818.067" fill="white"/>
</clipPath>
</defs>
</svg>
